REM COMMENT "Generated by IcecastMetadataRecorder https://github.com/eshaz/icecast-metadata-js"
REM BR "16"
REM METAINT "64"
REM DATE "2020-07-29T21:16:11.222Z"
TITLE "isics-all"
FILE "isics-all.mp3" WAVE
  TRACK 1 AUDIO
    TITLE "2020-07-29T21:22:32.534Z TO:41 Polk County - West Des Moines Fire Paging FROM:1007"
    INDEX 01 06:21:23
  TRACK 2 AUDIO
    TITLE "2020-07-29T21:22:42.398Z TO:177 Polk County - Westcom Fire 2 FROM:1007"
    INDEX 01 06:31:13
  TRACK 3 AUDIO
    TITLE "2020-07-29T21:22:52.838Z TO:175 Polk County - Westcom Fire 1 FROM:1007"
    INDEX 01 06:41:46
  TRACK 4 AUDIO
    TITLE "2020-07-29T21:23:02.630Z TO:1101 Polk County - Westcom Law Enforcement 1 FROM:1004"
    INDEX 01 06:51:31
  TRACK 5 AUDIO
    TITLE "2020-07-29T21:23:06.158Z TO:1101 Polk County - Westcom Law Enforcement 1 FROM:1384"
    INDEX 01 06:54:70
  TRACK 6 AUDIO
    TITLE "2020-07-29T21:23:08.966Z TO:1101 Polk County - Westcom Law Enforcement 1 FROM:1004"
    INDEX 01 06:57:56
  TRACK 7 AUDIO
    TITLE "2020-07-29T21:23:11.054Z TO:177 Polk County - Westcom Fire 2 FROM:1007"
    INDEX 01 06:59:62
  TRACK 8 AUDIO
    TITLE "2020-07-29T21:23:21.566Z TO:41 Polk County - West Des Moines Fire Paging FROM:1007"
    INDEX 01 07:10:26
  TRACK 9 AUDIO
    TITLE "2020-07-29T21:23:31.358Z TO:175 Polk County - Westcom Fire 1 FROM:1007"
    INDEX 01 07:20:10
  TRACK 10 AUDIO
    TITLE "END"
    INDEX 01 07:30:49